<svg width="280" height="44" viewBox="0 0 280 44" fill="none" xmlns="http://www.w3.org/2000/svg">
<rect width="280" height="44" rx="22" fill="#C4C4C4"/>
<path d="M47.832 33.168C46.3707 33.168 45.0267 32.976 43.8 32.592C42.584 32.2187 41.528 31.664 40.632 30.928C39.7467 30.1813 39.0587 29.264 38.568 28.176C38.088 27.088 37.848 25.8347 37.848 24.416C37.848 22.6987 38.1147 21.1413 38.648 19.744C39.1813 18.3467 39.9493 17.1467 40.952 16.144C41.9653 15.1413 43.1813 14.3733 44.6 13.84C46.0187 13.3067 47.6133 13.04 49.384 13.04C50.152 13.04 50.888 13.12 51.592 13.28C52.296 13.4293 52.9253 13.6533 53.48 13.952C54.0453 14.2507 54.488 14.624 54.808 15.072C55.128 15.5093 55.288 16.016 55.288 16.592C55.288 17.4347 55.0853 18.08 54.68 18.528C54.2853 18.976 53.7413 19.2 53.048 19.2C52.6747 19.2 52.344 19.1787 52.056 19.136C51.7787 19.0933 51.512 19.0453 51.256 18.992C51 18.9387 50.7333 18.8907 50.456 18.848C50.1893 18.8053 49.88 18.784 49.528 18.784C49.1547 18.784 48.8133 18.8747 48.504 19.056C48.1947 19.2373 47.9227 19.504 47.688 19.856C47.464 20.208 47.288 20.6347 47.16 21.136C47.0427 21.6267 46.984 22.1867 46.984 22.816C46.984 23.3173 47.0267 23.792 47.112 24.24C47.1973 24.6773 47.3413 25.0613 47.544 25.392C47.7573 25.7227 48.0453 25.984 48.408 26.176C48.7707 26.3573 49.2293 26.448 49.784 26.448C50.0827 26.448 50.3867 26.4053 50.696 26.32C51.0053 26.224 51.3093 26.1173 51.608 26C51.9173 25.872 52.2373 25.7653 52.568 25.68C52.8987 25.584 53.2453 25.536 53.608 25.536C54.7387 25.536 55.512 25.7973 55.928 26.32C56.3547 26.8427 56.568 27.5307 56.568 28.384C56.568 29.2267 56.3333 29.952 55.864 30.56C55.3947 31.1573 54.7493 31.648 53.928 32.032C53.1173 32.416 52.1893 32.6987 51.144 32.88C50.0987 33.072 48.9947 33.168 47.832 33.168ZM69.2898 33.712C67.7538 33.712 66.3244 33.504 65.0018 33.088C63.6898 32.672 62.5431 32.064 61.5618 31.264C60.5804 30.464 59.8124 29.4827 59.2578 28.32C58.7138 27.1573 58.4418 25.8293 58.4418 24.336C58.4418 22.864 58.6604 21.5307 59.0978 20.336C59.5351 19.1307 60.1484 18.0693 60.9378 17.152C61.7378 16.224 62.6764 15.4453 63.7538 14.816C64.8311 14.1867 66.0098 13.712 67.2898 13.392C68.5804 13.072 69.9298 12.912 71.3378 12.912C72.9698 12.912 74.5058 13.136 75.9458 13.584C77.3964 14.0213 78.6764 14.6613 79.7858 15.504C80.8951 16.3467 81.7644 17.376 82.3938 18.592C83.0231 19.7973 83.3378 21.168 83.3378 22.704C83.3378 24.4 82.9538 25.9307 82.1858 27.296C81.4178 28.6507 80.3671 29.808 79.0338 30.768C77.7111 31.7173 76.2071 32.4427 74.5218 32.944C72.8471 33.456 71.1031 33.712 69.2898 33.712ZM70.8738 25.408C71.7911 25.408 72.5324 25.2533 73.0978 24.944C73.6631 24.6347 74.0684 24.2453 74.3138 23.776C74.5698 23.296 74.6978 22.8053 74.6978 22.304C74.6978 21.824 74.6124 21.3867 74.4418 20.992C74.2711 20.5867 74.0258 20.2347 73.7058 19.936C73.3858 19.6373 73.0178 19.4027 72.6018 19.232C72.1858 19.0613 71.7324 18.976 71.2418 18.976C70.7938 18.976 70.3564 19.0453 69.9298 19.184C69.5031 19.3227 69.1191 19.52 68.7778 19.776C68.4471 20.032 68.1804 20.3467 67.9778 20.72C67.7858 21.0827 67.6898 21.4827 67.6898 21.92C67.6898 22.3787 67.7698 22.816 67.9298 23.232C68.0898 23.6373 68.3084 24.0053 68.5858 24.336C68.8738 24.6667 69.2098 24.928 69.5938 25.12C69.9884 25.312 70.4151 25.408 70.8738 25.408ZM90.0443 32.768C89.0629 32.768 88.3163 32.5653 87.8043 32.16C87.2923 31.7547 86.8389 31.12 86.4443 30.256C86.2416 29.8187 86.0709 29.344 85.9323 28.832C85.7936 28.3093 85.6763 27.7653 85.5803 27.2C85.4949 26.6347 85.4309 26.0587 85.3883 25.472C85.3456 24.8747 85.3243 24.272 85.3243 23.664C85.3243 23.0773 85.3509 22.464 85.4043 21.824C85.4683 21.1733 85.5589 20.5227 85.6763 19.872C85.8043 19.2213 85.9536 18.6133 86.1243 18.048C86.2949 17.4827 86.4923 16.9973 86.7163 16.592C87.2069 15.6747 87.8043 14.9707 88.5083 14.48C89.2123 13.9893 89.9749 13.6533 90.7963 13.472C91.6176 13.28 92.4336 13.184 93.2443 13.184C93.9909 13.184 94.6843 13.2693 95.3243 13.44C95.9749 13.6107 96.5243 13.8667 96.9723 14.208C97.2069 14.3893 97.4309 14.6133 97.6443 14.88C97.8683 15.136 98.0763 15.424 98.2683 15.744C98.4603 16.064 98.6363 16.416 98.7963 16.8C98.9563 17.1733 99.1003 17.568 99.2283 17.984C99.3456 18.368 99.4843 18.7147 99.6443 19.024C99.8043 19.3227 100.012 19.472 100.268 19.472C100.599 19.472 100.85 19.312 101.02 18.992C101.202 18.6613 101.362 18.2773 101.5 17.84C101.607 17.4667 101.724 17.1093 101.852 16.768C101.991 16.4267 102.135 16.112 102.284 15.824C102.444 15.5253 102.615 15.248 102.796 14.992C102.978 14.736 103.164 14.5013 103.356 14.288C103.794 13.8827 104.3 13.584 104.876 13.392C105.463 13.1893 106.268 13.088 107.292 13.088C108.178 13.088 108.972 13.216 109.676 13.472C110.391 13.728 111.026 14.0853 111.58 14.544C112.135 15.0027 112.615 15.5467 113.02 16.176C113.415 16.7733 113.751 17.4507 114.028 18.208C114.306 18.9547 114.514 19.7493 114.652 20.592C114.802 21.4347 114.882 22.2933 114.892 23.168C114.892 23.7333 114.882 24.2987 114.86 24.864C114.839 25.4293 114.802 25.984 114.748 26.528C114.706 27.072 114.636 27.6053 114.54 28.128C114.444 28.64 114.316 29.1307 114.156 29.6C113.804 30.528 113.298 31.2 112.636 31.616C111.975 32.032 111.095 32.24 109.996 32.24C109.324 32.24 108.796 32.112 108.412 31.856C108.028 31.6 107.756 31.2907 107.596 30.928C107.554 30.768 107.506 30.5867 107.452 30.384C107.399 30.1813 107.346 29.968 107.292 29.744C107.25 29.52 107.202 29.296 107.148 29.072C107.106 28.8373 107.068 28.6133 107.036 28.4C106.994 28.0587 106.94 27.7067 106.876 27.344C106.812 26.9813 106.743 26.6453 106.668 26.336C106.604 26.016 106.546 25.76 106.492 25.568C106.386 25.1627 106.242 24.8427 106.06 24.608C105.89 24.3733 105.644 24.256 105.324 24.256C104.983 24.256 104.706 24.4107 104.492 24.72C104.279 25.0187 104.103 25.408 103.964 25.888C103.943 26.016 103.906 26.1707 103.852 26.352C103.81 26.5227 103.756 26.7147 103.692 26.928C103.639 27.1413 103.58 27.3653 103.516 27.6C103.452 27.8347 103.383 28.064 103.308 28.288C103.244 28.512 103.175 28.7307 103.1 28.944C102.855 29.5413 102.508 30.0053 102.06 30.336C101.612 30.6667 100.972 30.832 100.14 30.832C99.2336 30.832 98.5669 30.6613 98.1403 30.32C97.7136 29.968 97.3083 29.4507 96.9243 28.768C96.8603 28.6293 96.7856 28.448 96.7003 28.224C96.6256 27.9893 96.5403 27.7333 96.4443 27.456C96.3589 27.1787 96.2683 26.8907 96.1723 26.592C96.0869 26.2827 95.9963 25.9787 95.9003 25.68C95.8149 25.3813 95.7349 25.104 95.6603 24.848C95.5216 24.4107 95.3829 24.096 95.2443 23.904C95.1163 23.712 94.9296 23.616 94.6843 23.616C94.3963 23.616 94.1776 23.776 94.0283 24.096C93.8896 24.4053 93.7776 24.8533 93.6923 25.44C93.6709 25.6 93.6496 25.7813 93.6283 25.984C93.6069 26.176 93.5909 26.3947 93.5803 26.64C93.5803 26.8853 93.5749 27.152 93.5642 27.44C93.5536 27.728 93.5483 28.0427 93.5483 28.384C93.5483 28.7467 93.5376 29.072 93.5163 29.36C93.5056 29.648 93.4789 29.9147 93.4363 30.16C93.3936 30.3947 93.3349 30.6133 93.2603 30.816C93.1963 31.0187 93.1056 31.216 92.9883 31.408C92.7109 31.8453 92.3163 32.1813 91.8043 32.416C91.3029 32.6507 90.7163 32.768 90.0443 32.768ZM125.206 32.752C123.99 32.752 122.854 32.528 121.798 32.08C120.753 31.632 119.878 30.928 119.174 29.968C118.481 29.008 118.028 27.76 117.814 26.224C117.772 25.9147 117.734 25.5947 117.702 25.264C117.67 24.9227 117.644 24.5707 117.622 24.208C117.601 23.8453 117.585 23.4773 117.574 23.104C117.574 22.7307 117.574 22.3413 117.574 21.936C117.574 19.9627 117.798 18.3253 118.246 17.024C118.705 15.712 119.366 14.6827 120.23 13.936C121.105 13.1787 122.172 12.6453 123.43 12.336C124.689 12.016 126.113 11.856 127.702 11.856C128.513 11.856 129.276 11.8987 129.99 11.984C130.716 12.0693 131.35 12.208 131.894 12.4C132.438 12.592 132.865 12.8533 133.174 13.184C133.484 13.504 133.638 13.904 133.638 14.384C133.638 14.9387 133.478 15.392 133.158 15.744C132.849 16.096 132.465 16.336 132.006 16.464C131.665 16.56 131.233 16.64 130.71 16.704C130.198 16.7573 129.676 16.8 129.142 16.832C128.609 16.864 128.124 16.8853 127.686 16.896C127.313 16.9067 127.004 16.944 126.758 17.008C126.513 17.072 126.321 17.1733 126.182 17.312C126.044 17.44 125.942 17.6 125.878 17.792C125.825 17.984 125.798 18.2027 125.798 18.448C125.798 18.64 125.83 18.816 125.894 18.976C125.958 19.1253 126.081 19.2427 126.262 19.328C126.454 19.4133 126.726 19.456 127.078 19.456C127.334 19.456 127.58 19.4507 127.814 19.44C128.049 19.4293 128.278 19.4133 128.502 19.392C128.737 19.3707 128.966 19.36 129.19 19.36C129.425 19.3493 129.654 19.344 129.878 19.344C130.668 19.344 131.254 19.5413 131.638 19.936C132.033 20.32 132.23 20.864 132.23 21.568C132.23 22.624 131.958 23.36 131.414 23.776C130.881 24.1813 130.252 24.384 129.526 24.384C129.26 24.384 128.998 24.384 128.742 24.384C128.497 24.384 128.262 24.384 128.038 24.384C127.814 24.3733 127.596 24.368 127.382 24.368C127.18 24.368 126.993 24.368 126.822 24.368C126.417 24.368 126.097 24.4053 125.862 24.48C125.638 24.544 125.478 24.64 125.382 24.768C125.297 24.8853 125.254 25.0453 125.254 25.248C125.254 25.4507 125.276 25.6373 125.318 25.808C125.372 25.9787 125.457 26.128 125.574 26.256C125.692 26.384 125.846 26.4907 126.038 26.576C126.241 26.6507 126.481 26.7147 126.758 26.768C127.046 26.8107 127.388 26.832 127.782 26.832C128.177 26.832 128.582 26.8267 128.998 26.816C129.425 26.8053 129.83 26.8 130.214 26.8C130.598 26.8 130.924 26.8 131.19 26.8C132.001 26.8 132.604 27.0027 132.998 27.408C133.393 27.8133 133.59 28.3787 133.59 29.104C133.59 29.8827 133.324 30.5173 132.79 31.008C132.257 31.488 131.564 31.8507 130.71 32.096C129.868 32.352 128.956 32.5227 127.974 32.608C127.004 32.704 126.081 32.752 125.206 32.752ZM156.14 33.2C154.828 33.2 153.676 33.1467 152.684 33.04C151.702 32.944 150.876 32.7413 150.204 32.432C149.542 32.1333 149.014 31.6853 148.62 31.088C148.236 30.4907 147.98 29.6907 147.852 28.688C147.798 28.24 147.745 27.76 147.692 27.248C147.649 26.7253 147.606 26.1867 147.564 25.632C147.532 25.0667 147.505 24.5013 147.484 23.936C147.462 23.3707 147.446 22.8213 147.436 22.288C147.425 21.744 147.425 21.2373 147.436 20.768C147.457 18.784 147.782 17.2213 148.412 16.08C149.052 14.9387 150.038 14.128 151.372 13.648C152.705 13.168 154.428 12.928 156.54 12.928C157.574 12.928 158.62 13.008 159.676 13.168C160.742 13.328 161.718 13.6 162.604 13.984C163.5 14.3573 164.214 14.8693 164.748 15.52C165.292 16.1707 165.564 16.992 165.564 17.984C165.564 18.6347 165.468 19.168 165.276 19.584C165.094 20 164.86 20.3307 164.572 20.576C164.294 20.8213 163.996 21.0187 163.676 21.168C163.313 21.3387 163.004 21.488 162.748 21.616C162.502 21.7333 162.38 21.8347 162.38 21.92C162.38 21.9947 162.497 22.0693 162.732 22.144C162.977 22.2187 163.292 22.3147 163.676 22.432C164.412 22.656 165.052 22.9813 165.596 23.408C166.15 23.824 166.582 24.3413 166.892 24.96C167.212 25.568 167.372 26.2613 167.372 27.04C167.372 27.7333 167.222 28.4053 166.924 29.056C166.636 29.7067 166.241 30.2613 165.74 30.72C165.302 31.1147 164.721 31.4667 163.996 31.776C163.27 32.0853 162.465 32.3467 161.58 32.56C160.694 32.7733 159.782 32.9333 158.844 33.04C157.905 33.1467 157.004 33.2 156.14 33.2ZM156.38 27.984C156.817 27.984 157.26 27.9573 157.708 27.904C158.156 27.84 158.561 27.7387 158.924 27.6C159.297 27.4507 159.59 27.2693 159.804 27.056C160.028 26.832 160.14 26.5653 160.14 26.256C160.14 26.032 160.06 25.8453 159.9 25.696C159.75 25.5467 159.548 25.424 159.292 25.328C159.046 25.232 158.769 25.1573 158.46 25.104C158.161 25.0507 157.857 25.0133 157.548 24.992C157.249 24.9707 156.972 24.96 156.716 24.96C156.566 24.96 156.396 24.976 156.204 25.008C156.022 25.04 155.846 25.104 155.676 25.2C155.505 25.2853 155.361 25.424 155.244 25.616C155.137 25.7973 155.084 26.0427 155.084 26.352C155.084 26.5653 155.1 26.768 155.132 26.96C155.164 27.152 155.228 27.328 155.324 27.488C155.42 27.6373 155.553 27.76 155.724 27.856C155.894 27.9413 156.113 27.984 156.38 27.984ZM155.58 20.208C155.878 20.208 156.172 20.192 156.46 20.16C156.748 20.1173 157.025 20.0587 157.292 19.984C157.569 19.9093 157.836 19.824 158.092 19.728C158.444 19.6 158.726 19.4347 158.94 19.232C159.153 19.0187 159.26 18.7627 159.26 18.464C159.26 18.2187 159.169 18 158.988 17.808C158.817 17.616 158.582 17.456 158.284 17.328C157.996 17.1893 157.681 17.088 157.34 17.024C156.998 16.9493 156.668 16.912 156.348 16.912C156.113 16.912 155.889 16.9333 155.676 16.976C155.473 17.0187 155.297 17.088 155.148 17.184C155.009 17.28 154.902 17.3973 154.828 17.536C154.796 17.6 154.769 17.6853 154.748 17.792C154.726 17.888 154.705 17.9947 154.684 18.112C154.673 18.2293 154.662 18.352 154.652 18.48C154.652 18.5973 154.652 18.704 154.652 18.8C154.652 19.2693 154.721 19.6213 154.86 19.856C154.998 20.0907 155.238 20.208 155.58 20.208ZM189.244 32.64C188.487 32.64 187.815 32.5333 187.228 32.32C186.642 32.1067 186.119 31.7227 185.66 31.168C185.564 31.008 185.474 30.848 185.388 30.688C185.303 30.528 185.218 30.368 185.132 30.208C185.058 30.0373 184.962 29.8507 184.844 29.648C184.727 29.4453 184.572 29.2267 184.38 28.992C184.156 28.6827 183.922 28.4427 183.676 28.272C183.431 28.0907 183.159 27.9627 182.86 27.888C182.732 27.8453 182.572 27.8133 182.38 27.792C182.199 27.7707 181.996 27.7547 181.772 27.744C181.548 27.7227 181.33 27.712 181.116 27.712C180.786 27.712 180.444 27.728 180.092 27.76C179.751 27.7813 179.442 27.8187 179.164 27.872C178.887 27.936 178.652 28.0267 178.46 28.144C178.268 28.2613 178.098 28.4213 177.948 28.624C177.81 28.8053 177.671 29.0187 177.532 29.264C177.404 29.4987 177.271 29.744 177.132 30C176.994 30.2453 176.844 30.496 176.684 30.752C176.343 31.2107 175.895 31.6 175.34 31.92C174.796 32.2293 174.012 32.384 172.988 32.384C172.103 32.384 171.362 32.256 170.764 32C170.167 31.744 169.724 31.3227 169.436 30.736C169.148 30.1387 169.004 29.3387 169.004 28.336C169.004 27.7067 169.074 27.0507 169.212 26.368C169.351 25.6747 169.543 24.976 169.788 24.272C170.034 23.5573 170.306 22.8693 170.604 22.208C170.914 21.536 171.223 20.9013 171.532 20.304C171.842 19.7067 172.14 19.1733 172.428 18.704C172.716 18.2347 172.967 17.8507 173.18 17.552C173.532 17.04 173.959 16.512 174.46 15.968C174.962 15.4133 175.538 14.9013 176.188 14.432C176.85 13.9627 177.591 13.5787 178.412 13.28C179.234 12.9813 180.146 12.832 181.148 12.832C182.599 12.832 183.98 13.152 185.292 13.792C186.604 14.4213 187.804 15.3227 188.892 16.496C189.34 16.976 189.767 17.536 190.172 18.176C190.578 18.8053 190.951 19.4933 191.292 20.24C191.644 20.976 191.959 21.7387 192.236 22.528C192.524 23.3173 192.77 24.1067 192.972 24.896C193.175 25.6747 193.324 26.4267 193.42 27.152C193.527 27.8773 193.58 28.5387 193.58 29.136C193.58 30.4373 193.186 31.3493 192.396 31.872C191.607 32.384 190.556 32.64 189.244 32.64ZM183.244 22.944C183.447 22.8373 183.58 22.704 183.644 22.544C183.708 22.3733 183.74 22.1227 183.74 21.792C183.74 21.5787 183.708 21.3387 183.644 21.072C183.591 20.7947 183.516 20.5173 183.42 20.24C183.324 19.9627 183.212 19.7173 183.084 19.504C182.903 19.1733 182.684 18.9067 182.428 18.704C182.172 18.4907 181.911 18.384 181.644 18.384C181.228 18.384 180.85 18.5547 180.508 18.896C180.167 19.2373 179.89 19.6107 179.676 20.016C179.602 20.1547 179.522 20.32 179.436 20.512C179.362 20.6933 179.292 20.8853 179.228 21.088C179.164 21.28 179.111 21.472 179.068 21.664C179.026 21.8453 179.004 22.0107 179.004 22.16C179.004 22.5333 179.17 22.8 179.5 22.96C179.831 23.12 180.21 23.2 180.636 23.2C181.042 23.2 181.404 23.1893 181.724 23.168C182.055 23.1467 182.343 23.12 182.588 23.088C182.844 23.0453 183.063 22.9973 183.244 22.944ZM205.27 33.168C203.808 33.168 202.464 32.976 201.238 32.592C200.022 32.2187 198.966 31.664 198.07 30.928C197.184 30.1813 196.496 29.264 196.006 28.176C195.526 27.088 195.286 25.8347 195.286 24.416C195.286 22.6987 195.552 21.1413 196.086 19.744C196.619 18.3467 197.387 17.1467 198.39 16.144C199.403 15.1413 200.619 14.3733 202.038 13.84C203.456 13.3067 205.051 13.04 206.822 13.04C207.59 13.04 208.326 13.12 209.03 13.28C209.734 13.4293 210.363 13.6533 210.918 13.952C211.483 14.2507 211.926 14.624 212.246 15.072C212.566 15.5093 212.726 16.016 212.726 16.592C212.726 17.4347 212.523 18.08 212.118 18.528C211.723 18.976 211.179 19.2 210.486 19.2C210.112 19.2 209.782 19.1787 209.494 19.136C209.216 19.0933 208.95 19.0453 208.694 18.992C208.438 18.9387 208.171 18.8907 207.894 18.848C207.627 18.8053 207.318 18.784 206.966 18.784C206.592 18.784 206.251 18.8747 205.942 19.056C205.632 19.2373 205.36 19.504 205.126 19.856C204.902 20.208 204.726 20.6347 204.598 21.136C204.48 21.6267 204.422 22.1867 204.422 22.816C204.422 23.3173 204.464 23.792 204.55 24.24C204.635 24.6773 204.779 25.0613 204.982 25.392C205.195 25.7227 205.483 25.984 205.846 26.176C206.208 26.3573 206.667 26.448 207.222 26.448C207.52 26.448 207.824 26.4053 208.134 26.32C208.443 26.224 208.747 26.1173 209.046 26C209.355 25.872 209.675 25.7653 210.006 25.68C210.336 25.584 210.683 25.536 211.046 25.536C212.176 25.536 212.95 25.7973 213.366 26.32C213.792 26.8427 214.006 27.5307 214.006 28.384C214.006 29.2267 213.771 29.952 213.302 30.56C212.832 31.1573 212.187 31.648 211.366 32.032C210.555 32.416 209.627 32.6987 208.582 32.88C207.536 33.072 206.432 33.168 205.27 33.168ZM221.303 32.336C219.831 32.336 218.743 32.0533 218.039 31.488C217.335 30.912 216.845 30.1173 216.567 29.104C216.493 28.7733 216.429 28.4 216.375 27.984C216.333 27.5573 216.295 27.1147 216.263 26.656C216.242 26.1973 216.226 25.7387 216.215 25.28C216.215 24.8213 216.215 24.384 216.215 23.968C216.226 22.8373 216.29 21.6853 216.407 20.512C216.535 19.3387 216.749 18.2187 217.047 17.152C217.357 16.0853 217.773 15.1467 218.295 14.336C218.818 13.5893 219.485 13.04 220.295 12.688C221.117 12.336 222.087 12.16 223.207 12.16C224.199 12.16 224.983 12.448 225.559 13.024C226.135 13.6 226.423 14.368 226.423 15.328C226.423 15.7547 226.418 16.1493 226.407 16.512C226.407 16.8747 226.402 17.2 226.391 17.488C226.391 17.776 226.391 18.0267 226.391 18.24C226.391 18.4533 226.397 18.6347 226.407 18.784C226.418 18.9227 226.434 19.0293 226.455 19.104C226.53 19.2533 226.626 19.3653 226.743 19.44C226.871 19.504 227.074 19.536 227.351 19.536C227.522 19.536 227.714 19.472 227.927 19.344C228.141 19.216 228.375 19.008 228.631 18.72C229.122 18.1547 229.709 17.504 230.391 16.768C231.085 16.032 231.735 15.4133 232.343 14.912C233.079 14.2933 233.773 13.8507 234.423 13.584C235.074 13.3067 235.821 13.168 236.663 13.168C237.41 13.168 238.007 13.3173 238.455 13.616C238.914 13.904 239.245 14.2827 239.447 14.752C239.661 15.2213 239.767 15.7067 239.767 16.208C239.767 16.4853 239.73 16.7573 239.655 17.024C239.581 17.2907 239.469 17.5573 239.319 17.824C239.17 18.08 238.983 18.3413 238.759 18.608C238.535 18.864 238.279 19.1147 237.991 19.36C237.661 19.6267 237.298 19.8933 236.903 20.16C236.509 20.4267 236.087 20.6827 235.639 20.928C235.202 21.1627 234.759 21.392 234.311 21.616C233.746 21.8827 233.325 22.1067 233.047 22.288C232.781 22.4693 232.647 22.6347 232.647 22.784C232.647 22.9333 232.695 23.072 232.791 23.2C232.887 23.328 233.085 23.5147 233.383 23.76C233.575 23.9093 233.805 24.0907 234.071 24.304C234.338 24.5173 234.621 24.7467 234.919 24.992C235.229 25.2267 235.527 25.4613 235.815 25.696C236.103 25.92 236.365 26.128 236.599 26.32C236.834 26.512 237.01 26.6667 237.127 26.784C237.607 27.2213 237.959 27.6427 238.183 28.048C238.407 28.4427 238.519 28.8587 238.519 29.296C238.519 30.0427 238.354 30.64 238.023 31.088C237.693 31.536 237.245 31.8613 236.679 32.064C236.114 32.2773 235.474 32.384 234.759 32.384C234.13 32.384 233.485 32.2613 232.823 32.016C232.162 31.7813 231.522 31.4453 230.903 31.008C230.509 30.688 230.146 30.368 229.815 30.048C229.485 29.7173 229.186 29.3973 228.919 29.088C228.653 28.768 228.407 28.464 228.183 28.176C227.97 27.888 227.778 27.632 227.607 27.408C227.277 26.896 227.01 26.5067 226.807 26.24C226.605 25.9733 226.429 25.7867 226.279 25.68C226.141 25.5733 225.986 25.52 225.815 25.52C225.645 25.52 225.522 25.6053 225.447 25.776C225.373 25.9467 225.335 26.1653 225.335 26.432C225.335 26.5067 225.335 26.6133 225.335 26.752C225.335 26.8907 225.33 27.0453 225.319 27.216C225.319 27.376 225.314 27.5413 225.303 27.712C225.293 27.872 225.282 28.032 225.271 28.192C225.261 28.352 225.25 28.4907 225.239 28.608C225.079 29.8773 224.674 30.816 224.023 31.424C223.373 32.032 222.466 32.336 221.303 32.336Z" fill="#F9F9F9"/>
</svg>
