<svg width="285" height="44" viewBox="0 0 285 44" fill="none" xmlns="http://www.w3.org/2000/svg">
<rect width="280" height="44" rx="22" fill="#C4C4C4"/>
<path d="M20.512 31.8C19.5413 31.8 18.5707 31.7467 17.6 31.64C16.6293 31.5333 15.744 31.352 14.944 31.096C14.144 30.8507 13.4987 30.4987 13.008 30.04C12.5173 29.5707 12.272 28.9733 12.272 28.248C12.272 27.4907 12.448 26.8987 12.8 26.472C13.152 26.0453 13.616 25.752 14.192 25.592C14.768 25.4213 15.3867 25.336 16.048 25.336C16.176 25.336 16.352 25.352 16.576 25.384C16.8107 25.416 17.056 25.4533 17.312 25.496C17.5787 25.528 17.8347 25.544 18.08 25.544C18.5387 25.544 18.9493 25.5333 19.312 25.512C19.6747 25.48 19.984 25.416 20.24 25.32C20.496 25.224 20.688 25.0907 20.816 24.92C20.9547 24.7493 21.024 24.5307 21.024 24.264C21.024 24.0507 20.9547 23.864 20.816 23.704C20.6773 23.5333 20.48 23.3787 20.224 23.24C19.9787 23.1013 19.6853 22.968 19.344 22.84C19.0027 22.712 18.6293 22.5787 18.224 22.44C17.5307 22.2053 16.8747 21.9227 16.256 21.592C15.648 21.2613 15.104 20.8773 14.624 20.44C14.1547 20.0027 13.7867 19.5067 13.52 18.952C13.2533 18.3973 13.12 17.7893 13.12 17.128C13.12 16.2427 13.3387 15.4693 13.776 14.808C14.2133 14.136 14.8 13.56 15.536 13.08C16.2827 12.6 17.12 12.216 18.048 11.928C18.976 11.6293 19.936 11.4107 20.928 11.272C21.9307 11.1333 22.8907 11.064 23.808 11.064C24.5973 11.064 25.3653 11.1067 26.112 11.192C26.8587 11.2773 27.536 11.4267 28.144 11.64C28.752 11.8533 29.232 12.136 29.584 12.488C29.9467 12.84 30.128 13.2933 30.128 13.848C30.128 14.5093 29.968 15.048 29.648 15.464C29.3387 15.88 28.9333 16.184 28.432 16.376C27.9307 16.5573 27.392 16.648 26.816 16.648C26.6027 16.648 26.4 16.632 26.208 16.6C26.016 16.5573 25.8187 16.52 25.616 16.488C25.4133 16.4453 25.1627 16.424 24.864 16.424C24.64 16.424 24.4267 16.44 24.224 16.472C24.0213 16.504 23.84 16.5573 23.68 16.632C23.5307 16.7067 23.408 16.808 23.312 16.936C23.2267 17.0533 23.184 17.208 23.184 17.4C23.184 17.6347 23.2587 17.848 23.408 18.04C23.5573 18.232 23.7653 18.408 24.032 18.568C24.2987 18.728 24.6133 18.888 24.976 19.048C25.3387 19.1973 25.7387 19.352 26.176 19.512C26.784 19.7467 27.3973 20.0453 28.016 20.408C28.6453 20.76 29.2213 21.1867 29.744 21.688C30.2667 22.1787 30.688 22.744 31.008 23.384C31.328 24.0133 31.488 24.728 31.488 25.528C31.488 26.6267 31.184 27.576 30.576 28.376C29.968 29.1653 29.1413 29.816 28.096 30.328C27.0613 30.8293 25.888 31.1973 24.576 31.432C23.2747 31.6773 21.92 31.8 20.512 31.8ZM41.3313 31.752C40.1153 31.752 38.9793 31.528 37.9233 31.08C36.8779 30.632 36.0033 29.928 35.2993 28.968C34.6059 28.008 34.1526 26.76 33.9393 25.224C33.8966 24.9147 33.8593 24.5947 33.8273 24.264C33.7953 23.9227 33.7686 23.5707 33.7473 23.208C33.7259 22.8453 33.7099 22.4773 33.6993 22.104C33.6993 21.7307 33.6993 21.3413 33.6993 20.936C33.6993 18.9627 33.9233 17.3253 34.3713 16.024C34.8299 14.712 35.4913 13.6827 36.3553 12.936C37.2299 12.1787 38.2966 11.6453 39.5553 11.336C40.8139 11.016 42.2379 10.856 43.8273 10.856C44.6379 10.856 45.4006 10.8987 46.1153 10.984C46.8406 11.0693 47.4753 11.208 48.0193 11.4C48.5633 11.592 48.9899 11.8533 49.2993 12.184C49.6086 12.504 49.7633 12.904 49.7633 13.384C49.7633 13.9387 49.6033 14.392 49.2833 14.744C48.9739 15.096 48.5899 15.336 48.1313 15.464C47.7899 15.56 47.3579 15.64 46.8353 15.704C46.3233 15.7573 45.8006 15.8 45.2673 15.832C44.7339 15.864 44.2486 15.8853 43.8113 15.896C43.4379 15.9067 43.1286 15.944 42.8833 16.008C42.6379 16.072 42.4459 16.1733 42.3073 16.312C42.1686 16.44 42.0673 16.6 42.0033 16.792C41.9499 16.984 41.9233 17.2027 41.9233 17.448C41.9233 17.64 41.9553 17.816 42.0193 17.976C42.0833 18.1253 42.2059 18.2427 42.3873 18.328C42.5793 18.4133 42.8513 18.456 43.2033 18.456C43.4593 18.456 43.7046 18.4507 43.9393 18.44C44.1739 18.4293 44.4033 18.4133 44.6273 18.392C44.8619 18.3707 45.0913 18.36 45.3153 18.36C45.5499 18.3493 45.7793 18.344 46.0033 18.344C46.7926 18.344 47.3793 18.5413 47.7633 18.936C48.1579 19.32 48.3553 19.864 48.3553 20.568C48.3553 21.624 48.0833 22.36 47.5393 22.776C47.0059 23.1813 46.3766 23.384 45.6513 23.384C45.3846 23.384 45.1233 23.384 44.8673 23.384C44.6219 23.384 44.3873 23.384 44.1633 23.384C43.9393 23.3733 43.7206 23.368 43.5073 23.368C43.3046 23.368 43.1179 23.368 42.9473 23.368C42.5419 23.368 42.2219 23.4053 41.9873 23.48C41.7633 23.544 41.6033 23.64 41.5073 23.768C41.4219 23.8853 41.3793 24.0453 41.3793 24.248C41.3793 24.4507 41.4006 24.6373 41.4433 24.808C41.4966 24.9787 41.5819 25.128 41.6993 25.256C41.8166 25.384 41.9713 25.4907 42.1633 25.576C42.3659 25.6507 42.6059 25.7147 42.8833 25.768C43.1713 25.8107 43.5126 25.832 43.9073 25.832C44.3019 25.832 44.7073 25.8267 45.1233 25.816C45.5499 25.8053 45.9553 25.8 46.3393 25.8C46.7233 25.8 47.0486 25.8 47.3153 25.8C48.1259 25.8 48.7286 26.0027 49.1233 26.408C49.5179 26.8133 49.7153 27.3787 49.7153 28.104C49.7153 28.8827 49.4486 29.5173 48.9153 30.008C48.3819 30.488 47.6886 30.8507 46.8353 31.096C45.9926 31.352 45.0806 31.5227 44.0993 31.608C43.1286 31.704 42.2059 31.752 41.3313 31.752ZM57.5395 32.024C55.5875 31.6827 54.2328 30.9307 53.4755 29.768C52.7288 28.5947 52.3555 27.016 52.3555 25.032C52.3555 24.584 52.3715 24.0987 52.4035 23.576C52.4355 23.0427 52.4782 22.4933 52.5315 21.928C52.5955 21.352 52.6648 20.7813 52.7395 20.216C52.8248 19.6507 52.9102 19.1173 52.9955 18.616C53.0915 18.104 53.1822 17.6507 53.2675 17.256C53.6622 15.528 54.2808 14.1467 55.1235 13.112C55.9662 12.0773 57.0755 11.56 58.4515 11.56C59.4115 11.56 60.1208 11.7413 60.5795 12.104C61.0382 12.456 61.3368 12.952 61.4755 13.592C61.6248 14.232 61.6995 14.9787 61.6995 15.832C61.6995 16.1093 61.6942 16.392 61.6835 16.68C61.6835 16.968 61.6835 17.2613 61.6835 17.56C61.6835 17.848 61.6835 18.1467 61.6835 18.456C61.6942 18.7547 61.6995 19.048 61.6995 19.336C61.7102 19.624 61.7208 19.9067 61.7315 20.184C61.7528 20.4613 61.7795 20.728 61.8115 20.984C61.8542 21.4 61.9235 21.7733 62.0195 22.104C62.1262 22.424 62.2702 22.696 62.4515 22.92C62.6435 23.144 62.8782 23.3147 63.1555 23.432C63.4435 23.5493 63.7902 23.624 64.1955 23.656C65.1235 23.7413 65.9982 23.848 66.8195 23.976C67.6408 24.104 68.3022 24.2267 68.8035 24.344C69.1342 24.3867 69.4808 24.4667 69.8435 24.584C70.2062 24.6907 70.5048 24.8347 70.7395 25.016C70.9742 25.2187 71.1502 25.4693 71.2675 25.768C71.3955 26.0667 71.4595 26.4613 71.4595 26.952C71.4595 27.7947 71.2462 28.5147 70.8195 29.112C70.4035 29.7093 69.8595 30.2053 69.1875 30.6C68.5155 30.9947 67.8008 31.3093 67.0435 31.544C66.3608 31.7573 65.5182 31.9227 64.5155 32.04C63.5235 32.168 62.5262 32.232 61.5235 32.232C61.0328 32.232 60.5475 32.2267 60.0675 32.216C59.5875 32.216 59.1288 32.1947 58.6915 32.152C58.2648 32.12 57.8808 32.0773 57.5395 32.024ZM93.4005 31.64C92.6432 31.64 91.9712 31.5333 91.3845 31.32C90.7978 31.1067 90.2752 30.7227 89.8165 30.168C89.7205 30.008 89.6298 29.848 89.5445 29.688C89.4592 29.528 89.3738 29.368 89.2885 29.208C89.2138 29.0373 89.1178 28.8507 89.0005 28.648C88.8832 28.4453 88.7285 28.2267 88.5365 27.992C88.3125 27.6827 88.0778 27.4427 87.8325 27.272C87.5872 27.0907 87.3152 26.9627 87.0165 26.888C86.8885 26.8453 86.7285 26.8133 86.5365 26.792C86.3552 26.7707 86.1525 26.7547 85.9285 26.744C85.7045 26.7227 85.4858 26.712 85.2725 26.712C84.9418 26.712 84.6005 26.728 84.2485 26.76C83.9072 26.7813 83.5978 26.8187 83.3205 26.872C83.0432 26.936 82.8085 27.0267 82.6165 27.144C82.4245 27.2613 82.2538 27.4213 82.1045 27.624C81.9658 27.8053 81.8272 28.0187 81.6885 28.264C81.5605 28.4987 81.4272 28.744 81.2885 29C81.1498 29.2453 81.0005 29.496 80.8405 29.752C80.4992 30.2107 80.0512 30.6 79.4965 30.92C78.9525 31.2293 78.1685 31.384 77.1445 31.384C76.2592 31.384 75.5178 31.256 74.9205 31C74.3232 30.744 73.8805 30.3227 73.5925 29.736C73.3045 29.1387 73.1605 28.3387 73.1605 27.336C73.1605 26.7067 73.2298 26.0507 73.3685 25.368C73.5072 24.6747 73.6992 23.976 73.9445 23.272C74.1898 22.5573 74.4618 21.8693 74.7605 21.208C75.0698 20.536 75.3792 19.9013 75.6885 19.304C75.9978 18.7067 76.2965 18.1733 76.5845 17.704C76.8725 17.2347 77.1232 16.8507 77.3365 16.552C77.6885 16.04 78.1152 15.512 78.6165 14.968C79.1178 14.4133 79.6938 13.9013 80.3445 13.432C81.0058 12.9627 81.7472 12.5787 82.5685 12.28C83.3898 11.9813 84.3018 11.832 85.3045 11.832C86.7552 11.832 88.1365 12.152 89.4485 12.792C90.7605 13.4213 91.9605 14.3227 93.0485 15.496C93.4965 15.976 93.9232 16.536 94.3285 17.176C94.7338 17.8053 95.1072 18.4933 95.4485 19.24C95.8005 19.976 96.1152 20.7387 96.3925 21.528C96.6805 22.3173 96.9258 23.1067 97.1285 23.896C97.3312 24.6747 97.4805 25.4267 97.5765 26.152C97.6832 26.8773 97.7365 27.5387 97.7365 28.136C97.7365 29.4373 97.3418 30.3493 96.5525 30.872C95.7632 31.384 94.7125 31.64 93.4005 31.64ZM87.4005 21.944C87.6032 21.8373 87.7365 21.704 87.8005 21.544C87.8645 21.3733 87.8965 21.1227 87.8965 20.792C87.8965 20.5787 87.8645 20.3387 87.8005 20.072C87.7472 19.7947 87.6725 19.5173 87.5765 19.24C87.4805 18.9627 87.3685 18.7173 87.2405 18.504C87.0592 18.1733 86.8405 17.9067 86.5845 17.704C86.3285 17.4907 86.0672 17.384 85.8005 17.384C85.3845 17.384 85.0058 17.5547 84.6645 17.896C84.3232 18.2373 84.0458 18.6107 83.8325 19.016C83.7578 19.1547 83.6778 19.32 83.5925 19.512C83.5178 19.6933 83.4485 19.8853 83.3845 20.088C83.3205 20.28 83.2672 20.472 83.2245 20.664C83.1818 20.8453 83.1605 21.0107 83.1605 21.16C83.1605 21.5333 83.3258 21.8 83.6565 21.96C83.9872 22.12 84.3658 22.2 84.7925 22.2C85.1978 22.2 85.5605 22.1893 85.8805 22.168C86.2112 22.1467 86.4992 22.12 86.7445 22.088C87.0005 22.0453 87.2192 21.9973 87.4005 21.944ZM104.37 31.768C103.58 31.768 102.924 31.624 102.402 31.336C101.89 31.0587 101.452 30.6693 101.09 30.168C100.908 29.912 100.748 29.5867 100.61 29.192C100.482 28.7973 100.364 28.3653 100.258 27.896C100.162 27.416 100.082 26.9147 100.018 26.392C99.9538 25.8693 99.9004 25.3413 99.8578 24.808C99.8258 24.2747 99.7991 23.768 99.7778 23.288C99.7671 22.7973 99.7618 22.3493 99.7618 21.944C99.7618 19.9493 99.9058 18.2373 100.194 16.808C100.492 15.368 101.02 14.2587 101.778 13.48C102.546 12.7013 103.634 12.312 105.042 12.312C105.884 12.312 106.61 12.4453 107.218 12.712C107.826 12.9787 108.434 13.3947 109.042 13.96C109.65 14.5147 110.37 15.24 111.202 16.136C112.087 17.128 112.892 17.96 113.618 18.632C114.354 19.304 114.93 19.64 115.346 19.64C115.527 19.64 115.671 19.6187 115.778 19.576C115.895 19.5333 115.991 19.4533 116.066 19.336C116.151 19.208 116.22 19.032 116.274 18.808C116.306 18.6907 116.338 18.5307 116.37 18.328C116.412 18.1253 116.45 17.9013 116.482 17.656C116.524 17.4 116.567 17.1387 116.61 16.872C116.652 16.5947 116.695 16.3227 116.738 16.056C116.791 15.7893 116.844 15.5493 116.898 15.336C116.951 15.112 116.999 14.9253 117.042 14.776C117.34 13.976 117.772 13.4053 118.338 13.064C118.903 12.7227 119.676 12.552 120.658 12.552C121.447 12.552 122.103 12.68 122.626 12.936C123.148 13.192 123.57 13.5653 123.89 14.056C124.22 14.5467 124.455 15.1493 124.594 15.864C124.732 16.568 124.807 17.368 124.818 18.264C124.818 18.6907 124.807 19.16 124.786 19.672C124.764 20.184 124.732 20.7227 124.69 21.288C124.658 21.8427 124.604 22.408 124.53 22.984C124.466 23.56 124.391 24.1253 124.306 24.68C124.22 25.2347 124.119 25.768 124.002 26.28C123.895 26.7813 123.767 27.24 123.618 27.656C123.319 28.52 122.951 29.2293 122.514 29.784C122.076 30.3387 121.543 30.7493 120.914 31.016C120.284 31.2827 119.527 31.416 118.642 31.416C117.927 31.416 117.207 31.224 116.482 30.84C115.756 30.4453 115.031 29.9173 114.306 29.256C113.591 28.584 112.876 27.8267 112.162 26.984C111.682 26.4293 111.266 25.96 110.914 25.576C110.572 25.1813 110.284 24.872 110.05 24.648C109.815 24.4133 109.612 24.2427 109.442 24.136C109.271 24.0293 109.111 23.976 108.962 23.976C108.62 23.976 108.37 24.1413 108.21 24.472C108.06 24.8027 107.986 25.4693 107.986 26.472C107.986 26.7067 107.98 26.952 107.97 27.208C107.97 27.464 107.964 27.72 107.954 27.976C107.954 28.232 107.943 28.4773 107.922 28.712C107.911 28.9467 107.884 29.176 107.842 29.4C107.81 29.6133 107.772 29.816 107.73 30.008C107.687 30.1893 107.634 30.3493 107.57 30.488C107.282 30.9147 106.866 31.2347 106.322 31.448C105.778 31.6613 105.127 31.768 104.37 31.768ZM135.487 32.408C134.463 32.408 133.481 32.328 132.543 32.168C131.604 32.008 130.745 31.7573 129.967 31.416C129.188 31.0747 128.516 30.632 127.951 30.088C127.556 29.6933 127.231 29.2507 126.975 28.76C126.729 28.2693 126.548 27.7573 126.431 27.224C126.313 26.6907 126.255 26.1627 126.255 25.64C126.255 25.0213 126.361 24.472 126.575 23.992C126.799 23.512 127.097 23.1067 127.471 22.776C127.855 22.4347 128.292 22.1787 128.783 22.008C129.273 21.8267 129.796 21.736 130.351 21.736C130.831 21.736 131.252 21.832 131.615 22.024C131.988 22.2053 132.271 22.4987 132.463 22.904C132.58 23.2027 132.692 23.4907 132.799 23.768C132.916 24.0453 133.033 24.3013 133.151 24.536C133.289 24.8027 133.471 25 133.695 25.128C133.929 25.2453 134.191 25.304 134.479 25.304C134.756 25.304 134.975 25.2773 135.135 25.224C135.305 25.1707 135.455 25.0853 135.583 24.968C135.721 24.8187 135.849 24.6373 135.967 24.424C136.084 24.2 136.18 23.9067 136.255 23.544C136.329 23.1813 136.367 22.7227 136.367 22.168C136.367 21.88 136.356 21.5067 136.335 21.048C136.313 20.5787 136.292 20.072 136.271 19.528C136.249 18.984 136.223 18.4347 136.191 17.88C136.169 17.3253 136.148 16.808 136.127 16.328C136.116 15.8373 136.111 15.4213 136.111 15.08C136.111 14.3227 136.217 13.6507 136.431 13.064C136.644 12.4773 137.071 12.0187 137.711 11.688C138.361 11.3573 139.337 11.192 140.639 11.192C141.577 11.192 142.399 11.3733 143.103 11.736C143.807 12.088 144.393 12.5947 144.863 13.256C145.055 13.544 145.231 13.8587 145.391 14.2C145.561 14.5413 145.705 14.9093 145.823 15.304C145.951 15.6987 146.052 16.12 146.127 16.568C146.212 17.0053 146.276 17.4693 146.319 17.96C146.361 18.44 146.383 18.9467 146.383 19.48C146.383 20.696 146.303 21.8 146.143 22.792C145.993 23.7733 145.78 24.664 145.503 25.464C145.225 26.264 144.895 26.9787 144.51 27.608C144.127 28.2373 143.705 28.8027 143.247 29.304C142.233 30.3813 141.049 31.1653 139.695 31.656C138.34 32.1573 136.937 32.408 135.487 32.408ZM159.401 31.672C156.766 31.672 154.548 31.0107 152.745 29.688C150.953 28.3653 149.662 26.6 148.873 24.392C148.745 24.04 148.628 23.6827 148.521 23.32C148.425 22.9467 148.34 22.568 148.265 22.184C148.201 21.8 148.142 21.4107 148.089 21.016C148.036 20.6107 147.993 20.2 147.961 19.784C147.94 19.368 147.929 18.9413 147.929 18.504C147.929 17.1493 148.094 16.0133 148.425 15.096C148.756 14.168 149.289 13.4693 150.025 13C150.772 12.52 151.758 12.28 152.985 12.28C153.817 12.28 154.505 12.4347 155.049 12.744C155.593 13.0533 155.998 13.5493 156.265 14.232C156.542 14.904 156.681 15.7947 156.681 16.904C156.681 17.2347 156.681 17.5653 156.681 17.896C156.692 18.2267 156.708 18.5467 156.729 18.856C156.761 19.1653 156.793 19.4693 156.825 19.768C156.857 20.0667 156.9 20.3493 156.953 20.616C157.017 20.8827 157.086 21.1333 157.161 21.368C157.353 21.9653 157.625 22.4453 157.977 22.808C158.34 23.1707 158.814 23.352 159.401 23.352C159.806 23.352 160.164 23.272 160.473 23.112C160.782 22.9413 161.049 22.712 161.273 22.424C161.508 22.1253 161.705 21.784 161.865 21.4C161.982 21.0907 162.084 20.7653 162.169 20.424C162.254 20.072 162.318 19.7093 162.361 19.336C162.414 18.9627 162.452 18.584 162.473 18.2C162.494 17.8053 162.505 17.416 162.505 17.032C162.505 15.9227 162.665 15.0213 162.985 14.328C163.316 13.6347 163.796 13.128 164.425 12.808C165.065 12.488 165.838 12.328 166.745 12.328C167.812 12.328 168.628 12.5467 169.193 12.984C169.769 13.4107 170.158 14.0613 170.361 14.936C170.574 15.8 170.681 16.8987 170.681 18.232C170.681 18.6907 170.665 19.1387 170.633 19.576C170.612 20.0133 170.574 20.4507 170.521 20.888C170.478 21.3147 170.414 21.7307 170.329 22.136C170.254 22.5413 170.164 22.9413 170.057 23.336C169.95 23.72 169.828 24.0987 169.689 24.472C169.145 25.944 168.388 27.2187 167.417 28.296C166.457 29.3733 165.305 30.2053 163.961 30.792C162.617 31.3787 161.097 31.672 159.401 31.672ZM183.769 31.912C182.671 31.912 181.828 31.6613 181.241 31.16C180.665 30.6693 180.308 29.96 180.169 29.032C180.137 28.7333 180.1 28.4027 180.057 28.04C180.025 27.6773 179.999 27.288 179.977 26.872C179.956 26.4453 179.935 26.0027 179.913 25.544C179.892 25.0853 179.876 24.6107 179.865 24.12C179.865 23.6293 179.86 23.1333 179.849 22.632C179.839 22.1307 179.833 21.6347 179.833 21.144C179.833 20.3013 179.759 19.704 179.609 19.352C179.471 18.9893 179.124 18.808 178.569 18.808C178.025 18.808 177.487 18.8507 176.953 18.936C176.42 19.0107 175.865 19.048 175.289 19.048C174.767 19.048 174.297 18.9253 173.881 18.68C173.476 18.4347 173.156 18.0827 172.921 17.624C172.687 17.1653 172.569 16.6267 172.569 16.008C172.569 15.2933 172.831 14.6853 173.353 14.184C173.887 13.6827 174.596 13.2667 175.481 12.936C176.377 12.6053 177.375 12.344 178.473 12.152C179.572 11.96 180.697 11.8267 181.849 11.752C183.001 11.6773 184.089 11.64 185.113 11.64C186.137 11.64 187.161 11.6613 188.185 11.704C189.22 11.736 190.201 11.8213 191.129 11.96C192.057 12.0987 192.879 12.3227 193.593 12.632C194.308 12.9307 194.873 13.3413 195.289 13.864C195.705 14.3867 195.913 15.0587 195.913 15.88C195.913 16.5947 195.796 17.2133 195.561 17.736C195.337 18.248 195.001 18.6427 194.553 18.92C194.116 19.1867 193.561 19.32 192.889 19.32C192.281 19.32 191.849 19.3147 191.593 19.304C191.348 19.2933 191.033 19.288 190.649 19.288C190.148 19.288 189.775 19.3627 189.529 19.512C189.284 19.6613 189.119 19.9173 189.033 20.28C188.948 20.6427 188.879 21.1493 188.825 21.8C188.804 22.1733 188.772 22.5573 188.729 22.952C188.697 23.3467 188.655 23.7467 188.601 24.152C188.559 24.5467 188.505 24.9413 188.441 25.336C188.377 25.7307 188.308 26.12 188.233 26.504C188.159 26.8773 188.079 27.2347 187.993 27.576C187.908 27.9173 187.817 28.2427 187.721 28.552C187.625 28.8507 187.524 29.1173 187.417 29.352C187.108 29.9493 186.804 30.44 186.505 30.824C186.217 31.1973 185.86 31.4693 185.433 31.64C185.017 31.8213 184.463 31.912 183.769 31.912ZM202.214 31.768C201.424 31.768 200.768 31.624 200.246 31.336C199.734 31.0587 199.296 30.6693 198.934 30.168C198.752 29.912 198.592 29.5867 198.454 29.192C198.326 28.7973 198.208 28.3653 198.102 27.896C198.006 27.416 197.926 26.9147 197.862 26.392C197.798 25.8693 197.744 25.3413 197.702 24.808C197.67 24.2747 197.643 23.768 197.622 23.288C197.611 22.7973 197.606 22.3493 197.606 21.944C197.606 19.9493 197.75 18.2373 198.038 16.808C198.336 15.368 198.864 14.2587 199.622 13.48C200.39 12.7013 201.478 12.312 202.886 12.312C203.728 12.312 204.454 12.4453 205.062 12.712C205.67 12.9787 206.278 13.3947 206.886 13.96C207.494 14.5147 208.214 15.24 209.046 16.136C209.931 17.128 210.736 17.96 211.462 18.632C212.198 19.304 212.774 19.64 213.19 19.64C213.371 19.64 213.515 19.6187 213.622 19.576C213.739 19.5333 213.835 19.4533 213.91 19.336C213.995 19.208 214.064 19.032 214.118 18.808C214.15 18.6907 214.182 18.5307 214.214 18.328C214.256 18.1253 214.294 17.9013 214.326 17.656C214.368 17.4 214.411 17.1387 214.454 16.872C214.496 16.5947 214.539 16.3227 214.582 16.056C214.635 15.7893 214.688 15.5493 214.742 15.336C214.795 15.112 214.843 14.9253 214.885 14.776C215.184 13.976 215.616 13.4053 216.182 13.064C216.747 12.7227 217.52 12.552 218.502 12.552C219.291 12.552 219.947 12.68 220.47 12.936C220.992 13.192 221.414 13.5653 221.734 14.056C222.064 14.5467 222.299 15.1493 222.438 15.864C222.576 16.568 222.651 17.368 222.662 18.264C222.662 18.6907 222.651 19.16 222.63 19.672C222.608 20.184 222.576 20.7227 222.534 21.288C222.502 21.8427 222.448 22.408 222.374 22.984C222.31 23.56 222.235 24.1253 222.15 24.68C222.064 25.2347 221.963 25.768 221.846 26.28C221.739 26.7813 221.611 27.24 221.462 27.656C221.163 28.52 220.795 29.2293 220.358 29.784C219.92 30.3387 219.387 30.7493 218.758 31.016C218.128 31.2827 217.371 31.416 216.486 31.416C215.771 31.416 215.051 31.224 214.326 30.84C213.6 30.4453 212.875 29.9173 212.15 29.256C211.435 28.584 210.72 27.8267 210.006 26.984C209.526 26.4293 209.11 25.96 208.758 25.576C208.416 25.1813 208.128 24.872 207.894 24.648C207.659 24.4133 207.456 24.2427 207.286 24.136C207.115 24.0293 206.955 23.976 206.806 23.976C206.464 23.976 206.214 24.1413 206.054 24.472C205.904 24.8027 205.83 25.4693 205.83 26.472C205.83 26.7067 205.824 26.952 205.814 27.208C205.814 27.464 205.808 27.72 205.798 27.976C205.798 28.232 205.787 28.4773 205.766 28.712C205.755 28.9467 205.728 29.176 205.686 29.4C205.654 29.6133 205.616 29.816 205.574 30.008C205.531 30.1893 205.478 30.3493 205.414 30.488C205.126 30.9147 204.71 31.2347 204.166 31.448C203.622 31.6613 202.971 31.768 202.214 31.768ZM235.538 31.32C234.386 31.32 233.549 31.112 233.026 30.696C232.504 30.28 232.136 29.6347 231.922 28.76C231.88 28.5573 231.842 28.344 231.81 28.12C231.778 27.896 231.746 27.6613 231.714 27.416C231.682 27.1707 231.656 26.9147 231.634 26.648C231.613 26.3707 231.592 26.0987 231.57 25.832C231.496 25.0107 231.394 24.2907 231.266 23.672C231.149 23.0427 230.877 22.6 230.45 22.344C229.917 22.0347 229.405 21.768 228.914 21.544C228.434 21.32 227.965 21.08 227.506 20.824C226.952 20.504 226.466 20.168 226.05 19.816C225.645 19.4533 225.309 19.0693 225.042 18.664C224.786 18.248 224.589 17.8053 224.45 17.336C224.322 16.8667 224.258 16.3707 224.258 15.848C224.258 15.0053 224.456 14.2907 224.85 13.704C225.245 13.1067 225.773 12.6533 226.434 12.344C227.096 12.024 227.832 11.864 228.642 11.864C229.261 11.864 229.816 11.9813 230.306 12.216C230.797 12.44 231.261 12.8613 231.698 13.48C231.912 13.8213 232.146 14.1733 232.402 14.536C232.658 14.888 232.914 15.2187 233.17 15.528C233.426 15.848 233.698 16.136 233.986 16.392C234.274 16.648 234.578 16.8507 234.898 17C235.218 17.1387 235.554 17.208 235.906 17.208C236.28 17.208 236.637 17.096 236.978 16.872C237.32 16.648 237.645 16.376 237.954 16.056C238.338 15.6507 238.696 15.2133 239.026 14.744C239.368 14.264 239.688 13.864 239.986 13.544C240.456 13.0853 240.92 12.7333 241.378 12.488C241.848 12.2427 242.365 12.12 242.93 12.12C243.72 12.12 244.434 12.3227 245.074 12.728C245.714 13.1333 246.221 13.6613 246.594 14.312C246.978 14.9627 247.17 15.672 247.17 16.44C247.17 16.7173 247.144 17.016 247.09 17.336C247.037 17.656 246.946 17.9867 246.818 18.328C246.69 18.6587 246.52 18.9893 246.306 19.32C246.104 19.6507 245.848 19.9707 245.538 20.28C244.898 20.8987 244.29 21.3893 243.714 21.752C243.138 22.1147 242.488 22.472 241.762 22.824C241.314 23.048 240.957 23.24 240.69 23.4C240.434 23.5493 240.232 23.704 240.082 23.864C239.933 24.0133 239.789 24.2107 239.65 24.456C239.586 24.584 239.522 24.7707 239.458 25.016C239.405 25.2613 239.346 25.5547 239.282 25.896C239.218 26.2267 239.154 26.5893 239.09 26.984C239.037 27.3787 238.984 27.7893 238.93 28.216C238.802 29.1653 238.44 29.9227 237.842 30.488C237.256 31.0427 236.488 31.32 235.538 31.32ZM267.744 31.64C266.987 31.64 266.315 31.5333 265.728 31.32C265.142 31.1067 264.619 30.7227 264.16 30.168C264.064 30.008 263.974 29.848 263.888 29.688C263.803 29.528 263.718 29.368 263.632 29.208C263.558 29.0373 263.462 28.8507 263.344 28.648C263.227 28.4453 263.072 28.2267 262.88 27.992C262.656 27.6827 262.422 27.4427 262.176 27.272C261.931 27.0907 261.659 26.9627 261.36 26.888C261.232 26.8453 261.072 26.8133 260.88 26.792C260.699 26.7707 260.496 26.7547 260.272 26.744C260.048 26.7227 259.83 26.712 259.616 26.712C259.286 26.712 258.944 26.728 258.592 26.76C258.251 26.7813 257.942 26.8187 257.664 26.872C257.387 26.936 257.152 27.0267 256.96 27.144C256.768 27.2613 256.598 27.4213 256.448 27.624C256.31 27.8053 256.171 28.0187 256.032 28.264C255.904 28.4987 255.771 28.744 255.632 29C255.494 29.2453 255.344 29.496 255.184 29.752C254.843 30.2107 254.395 30.6 253.84 30.92C253.296 31.2293 252.512 31.384 251.488 31.384C250.603 31.384 249.862 31.256 249.264 31C248.667 30.744 248.224 30.3227 247.936 29.736C247.648 29.1387 247.504 28.3387 247.504 27.336C247.504 26.7067 247.574 26.0507 247.712 25.368C247.851 24.6747 248.043 23.976 248.288 23.272C248.534 22.5573 248.806 21.8693 249.104 21.208C249.414 20.536 249.723 19.9013 250.032 19.304C250.342 18.7067 250.64 18.1733 250.928 17.704C251.216 17.2347 251.467 16.8507 251.68 16.552C252.032 16.04 252.459 15.512 252.96 14.968C253.462 14.4133 254.038 13.9013 254.688 13.432C255.35 12.9627 256.091 12.5787 256.912 12.28C257.734 11.9813 258.646 11.832 259.648 11.832C261.099 11.832 262.48 12.152 263.792 12.792C265.104 13.4213 266.304 14.3227 267.392 15.496C267.84 15.976 268.267 16.536 268.672 17.176C269.078 17.8053 269.451 18.4933 269.792 19.24C270.144 19.976 270.459 20.7387 270.736 21.528C271.024 22.3173 271.27 23.1067 271.472 23.896C271.675 24.6747 271.824 25.4267 271.92 26.152C272.027 26.8773 272.08 27.5387 272.08 28.136C272.08 29.4373 271.686 30.3493 270.896 30.872C270.107 31.384 269.056 31.64 267.744 31.64ZM261.744 21.944C261.947 21.8373 262.08 21.704 262.144 21.544C262.208 21.3733 262.24 21.1227 262.24 20.792C262.24 20.5787 262.208 20.3387 262.144 20.072C262.091 19.7947 262.016 19.5173 261.92 19.24C261.824 18.9627 261.712 18.7173 261.584 18.504C261.403 18.1733 261.184 17.9067 260.928 17.704C260.672 17.4907 260.411 17.384 260.144 17.384C259.728 17.384 259.35 17.5547 259.008 17.896C258.667 18.2373 258.39 18.6107 258.176 19.016C258.102 19.1547 258.022 19.32 257.936 19.512C257.862 19.6933 257.792 19.8853 257.728 20.088C257.664 20.28 257.611 20.472 257.568 20.664C257.526 20.8453 257.504 21.0107 257.504 21.16C257.504 21.5333 257.67 21.8 258 21.96C258.331 22.12 258.71 22.2 259.136 22.2C259.542 22.2 259.904 22.1893 260.224 22.168C260.555 22.1467 260.843 22.12 261.088 22.088C261.344 22.0453 261.563 21.9973 261.744 21.944Z" fill="#F9F9F9"/>
</svg>
