<svg width="280" height="44" viewBox="0 0 280 44" fill="none" xmlns="http://www.w3.org/2000/svg">
<rect width="280" height="44" rx="22" fill="#C4C4C4"/>
<path d="M69.352 32.024C67.4 31.6827 66.0453 30.9307 65.288 29.768C64.5413 28.5947 64.168 27.016 64.168 25.032C64.168 24.584 64.184 24.0987 64.216 23.576C64.248 23.0427 64.2907 22.4933 64.344 21.928C64.408 21.352 64.4773 20.7813 64.552 20.216C64.6373 19.6507 64.7227 19.1173 64.808 18.616C64.904 18.104 64.9947 17.6507 65.08 17.256C65.4747 15.528 66.0933 14.1467 66.936 13.112C67.7787 12.0773 68.888 11.56 70.264 11.56C71.224 11.56 71.9333 11.7413 72.392 12.104C72.8507 12.456 73.1493 12.952 73.288 13.592C73.4373 14.232 73.512 14.9787 73.512 15.832C73.512 16.1093 73.5067 16.392 73.496 16.68C73.496 16.968 73.496 17.2613 73.496 17.56C73.496 17.848 73.496 18.1467 73.496 18.456C73.5067 18.7547 73.512 19.048 73.512 19.336C73.5227 19.624 73.5333 19.9067 73.544 20.184C73.5653 20.4613 73.592 20.728 73.624 20.984C73.6667 21.4 73.736 21.7733 73.832 22.104C73.9387 22.424 74.0827 22.696 74.264 22.92C74.456 23.144 74.6907 23.3147 74.968 23.432C75.256 23.5493 75.6027 23.624 76.008 23.656C76.936 23.7413 77.8107 23.848 78.632 23.976C79.4533 24.104 80.1147 24.2267 80.616 24.344C80.9467 24.3867 81.2933 24.4667 81.656 24.584C82.0187 24.6907 82.3173 24.8347 82.552 25.016C82.7867 25.2187 82.9627 25.4693 83.08 25.768C83.208 26.0667 83.272 26.4613 83.272 26.952C83.272 27.7947 83.0587 28.5147 82.632 29.112C82.216 29.7093 81.672 30.2053 81 30.6C80.328 30.9947 79.6133 31.3093 78.856 31.544C78.1733 31.7573 77.3307 31.9227 76.328 32.04C75.336 32.168 74.3387 32.232 73.336 32.232C72.8453 32.232 72.36 32.2267 71.88 32.216C71.4 32.216 70.9413 32.1947 70.504 32.152C70.0773 32.12 69.6933 32.0773 69.352 32.024ZM94.109 32.408C92.2317 32.408 90.573 32.1147 89.133 31.528C87.7037 30.952 86.5837 30.072 85.773 28.888C84.973 27.6933 84.573 26.1893 84.573 24.376C84.573 22.8827 84.829 21.5707 85.341 20.44C85.8637 19.2987 86.5837 18.3387 87.501 17.56C88.4183 16.7813 89.4743 16.2 90.669 15.816C91.8743 15.4213 93.1597 15.224 94.525 15.224C95.453 15.224 96.3703 15.2987 97.277 15.448C98.1837 15.5973 99.005 15.848 99.741 16.2C100.488 16.552 101.08 17.0267 101.517 17.624C101.965 18.2213 102.189 18.9573 102.189 19.832C102.189 20.4827 102.088 21.0427 101.885 21.512C101.682 21.9707 101.394 22.36 101.021 22.68C100.658 22.9893 100.237 23.256 99.757 23.48C99.2877 23.6933 98.7757 23.8853 98.221 24.056C97.7623 24.216 97.181 24.3707 96.477 24.52C95.7837 24.6693 95.085 24.792 94.381 24.888C93.677 24.9733 93.0797 25.016 92.589 25.016C92.2583 25.016 92.0237 25.0533 91.885 25.128C91.757 25.192 91.693 25.32 91.693 25.512C91.693 25.6507 91.725 25.7893 91.789 25.928C91.853 26.0667 91.9543 26.1947 92.093 26.312C92.285 26.4933 92.525 26.616 92.813 26.68C93.101 26.744 93.437 26.776 93.821 26.776C94.429 26.776 95.0797 26.6747 95.773 26.472C96.477 26.2693 97.2077 26.0667 97.965 25.864C98.7223 25.6613 99.5063 25.56 100.317 25.56C101.16 25.56 101.837 25.7147 102.349 26.024C102.872 26.3333 103.133 26.952 103.133 27.88C103.133 28.6587 102.882 29.336 102.381 29.912C101.88 30.488 101.202 30.9573 100.349 31.32C99.4957 31.6933 98.5303 31.9653 97.453 32.136C96.3757 32.3173 95.261 32.408 94.109 32.408ZM93.325 22.04C93.6983 22.04 94.0877 21.9867 94.493 21.88C94.909 21.7627 95.261 21.5867 95.549 21.352C95.837 21.1067 95.981 20.8027 95.981 20.44C95.981 19.9813 95.805 19.6827 95.453 19.544C95.101 19.3947 94.6903 19.32 94.221 19.32C93.9223 19.32 93.6237 19.3733 93.325 19.48C93.0263 19.576 92.7543 19.7147 92.509 19.896C92.2743 20.0667 92.0823 20.2693 91.933 20.504C91.7837 20.728 91.709 20.9733 91.709 21.24C91.709 21.4747 91.773 21.6507 91.901 21.768C92.029 21.8747 92.2157 21.9493 92.461 21.992C92.7063 22.024 92.9943 22.04 93.325 22.04ZM115.778 31.416C114.754 31.416 113.8 31.2827 112.914 31.016C112.029 30.7493 111.314 30.3227 110.77 29.736C110.226 29.1387 109.944 28.3493 109.922 27.368C109.922 27.1333 109.922 26.888 109.922 26.632C109.922 26.376 109.922 26.1147 109.922 25.848C109.933 25.5813 109.938 25.32 109.938 25.064C109.949 24.808 109.954 24.5573 109.954 24.312C109.965 24.056 109.97 23.816 109.97 23.592C109.96 23.1227 109.821 22.8187 109.554 22.68C109.288 22.5413 108.946 22.4507 108.53 22.408C108.306 22.3867 108.077 22.3707 107.842 22.36C107.618 22.3387 107.384 22.312 107.138 22.28C106.904 22.248 106.653 22.216 106.386 22.184C105.778 22.1093 105.293 21.848 104.93 21.4C104.568 20.9413 104.386 20.3013 104.386 19.48C104.386 18.904 104.493 18.4667 104.706 18.168C104.92 17.8587 105.202 17.6293 105.554 17.48C105.917 17.3307 106.301 17.208 106.706 17.112C107.144 17.0267 107.544 16.9467 107.906 16.872C108.269 16.7867 108.594 16.712 108.882 16.648C109.17 16.5733 109.41 16.4667 109.602 16.328C109.805 16.1787 109.933 15.9333 109.986 15.592C110.018 15.3467 110.05 15.112 110.082 14.888C110.125 14.6533 110.168 14.4293 110.21 14.216C110.264 14.0027 110.322 13.8107 110.386 13.64C110.621 12.9787 110.941 12.5147 111.346 12.248C111.762 11.9813 112.408 11.848 113.282 11.848C113.965 11.848 114.509 11.9227 114.914 12.072C115.32 12.2107 115.634 12.44 115.858 12.76C116.093 13.08 116.28 13.5067 116.418 14.04C116.472 14.2747 116.514 14.4827 116.546 14.664C116.589 14.8347 116.621 15 116.642 15.16C116.674 15.32 116.706 15.48 116.738 15.64C116.77 15.8 116.797 15.9813 116.818 16.184C116.872 16.5147 117.016 16.7707 117.25 16.952C117.496 17.1333 117.778 17.2507 118.098 17.304C118.365 17.3573 118.61 17.4053 118.834 17.448C119.069 17.48 119.298 17.512 119.522 17.544C119.746 17.5653 119.981 17.5973 120.226 17.64C120.802 17.7147 121.336 17.9227 121.826 18.264C122.317 18.6053 122.562 19.1813 122.562 19.992C122.562 20.7067 122.36 21.288 121.954 21.736C121.56 22.1733 121.064 22.424 120.466 22.488C120.04 22.5307 119.618 22.568 119.202 22.6C118.797 22.632 118.456 22.664 118.178 22.696C117.954 22.728 117.736 22.8133 117.522 22.952C117.309 23.08 117.181 23.3307 117.138 23.704C117.128 23.864 117.117 24.0293 117.106 24.2C117.096 24.3707 117.085 24.5413 117.074 24.712C117.074 24.8827 117.069 25.0533 117.058 25.224C117.058 25.3947 117.064 25.56 117.074 25.72C117.085 25.8693 117.09 26.024 117.09 26.184C117.112 26.4933 117.202 26.7333 117.362 26.904C117.533 27.064 117.864 27.144 118.354 27.144C118.642 27.144 118.893 27.0907 119.106 26.984C119.33 26.8773 119.544 26.7707 119.746 26.664C119.96 26.5573 120.205 26.504 120.482 26.504C120.962 26.504 121.304 26.632 121.506 26.888C121.709 27.144 121.81 27.5173 121.81 28.008C121.81 28.5627 121.624 29.0533 121.25 29.48C120.877 29.896 120.392 30.248 119.794 30.536C119.208 30.824 118.562 31.0427 117.858 31.192C117.154 31.3413 116.461 31.416 115.778 31.416ZM128.758 19.176C128.001 19.176 127.494 18.952 127.238 18.504C126.982 18.056 126.854 17.4267 126.854 16.616C126.854 16.2107 126.801 15.7467 126.694 15.224C126.598 14.7013 126.395 14.2907 126.086 13.992C125.947 13.8427 125.803 13.6827 125.654 13.512C125.505 13.3413 125.377 13.16 125.27 12.968C125.174 12.776 125.126 12.5787 125.126 12.376C125.126 12.088 125.238 11.832 125.462 11.608C125.686 11.3733 125.985 11.256 126.358 11.256C126.881 11.256 127.355 11.336 127.782 11.496C128.209 11.6453 128.598 11.8747 128.95 12.184C129.313 12.4827 129.643 12.872 129.942 13.352C130.23 13.8213 130.454 14.3333 130.614 14.888C130.774 15.4427 130.854 15.9547 130.854 16.424C130.854 16.8507 130.785 17.2773 130.646 17.704C130.507 18.1307 130.283 18.4827 129.974 18.76C129.665 19.0373 129.259 19.176 128.758 19.176ZM141.19 31.656C140.294 31.656 139.472 31.624 138.726 31.56C137.979 31.5067 137.307 31.4213 136.71 31.304C136.112 31.1867 135.574 31.0373 135.094 30.856C134.411 30.6107 133.851 30.312 133.414 29.96C132.976 29.5973 132.758 29.0587 132.758 28.344C132.758 27.5547 132.976 26.9307 133.414 26.472C133.862 26.0027 134.518 25.768 135.382 25.768C135.84 25.768 136.299 25.8213 136.758 25.928C137.227 26.024 137.734 26.1253 138.278 26.232C138.822 26.3387 139.43 26.392 140.102 26.392C140.528 26.392 140.902 26.3707 141.222 26.328C141.552 26.2853 141.808 26.2053 141.99 26.088C142.171 25.9707 142.262 25.8107 142.262 25.608C142.262 25.384 142.187 25.208 142.038 25.08C141.888 24.952 141.595 24.8347 141.158 24.728C140.731 24.6107 140.096 24.4827 139.254 24.344C138.038 24.1413 136.992 23.8373 136.118 23.432C135.254 23.0267 134.587 22.504 134.118 21.864C133.648 21.2133 133.414 20.424 133.414 19.496C133.414 18.6427 133.664 17.9173 134.166 17.32C134.667 16.712 135.344 16.2267 136.198 15.864C137.051 15.4907 138.011 15.2187 139.078 15.048C140.155 14.8667 141.264 14.776 142.406 14.776C143.195 14.776 143.99 14.824 144.79 14.92C145.6 15.016 146.347 15.1707 147.03 15.384C147.712 15.5867 148.262 15.8587 148.678 16.2C149.094 16.5307 149.302 16.9413 149.302 17.432C149.302 18.072 149.152 18.5893 148.854 18.984C148.555 19.368 148.176 19.6453 147.718 19.816C147.27 19.976 146.811 20.056 146.342 20.056C145.723 20.056 145.131 20.0027 144.566 19.896C144 19.7787 143.536 19.72 143.174 19.72C142.918 19.72 142.694 19.7413 142.502 19.784C142.31 19.816 142.16 19.88 142.054 19.976C141.958 20.0613 141.91 20.184 141.91 20.344C141.91 20.5787 142.112 20.7653 142.518 20.904C142.934 21.032 143.638 21.1813 144.63 21.352C145.611 21.512 146.496 21.784 147.286 22.168C148.075 22.5413 148.699 23.0587 149.158 23.72C149.627 24.3813 149.862 25.224 149.862 26.248C149.862 27.1547 149.654 27.944 149.238 28.616C148.822 29.288 148.23 29.8533 147.462 30.312C146.694 30.76 145.776 31.096 144.71 31.32C143.654 31.544 142.48 31.656 141.19 31.656ZM174.562 32.312C172.855 32.312 171.282 32.0933 169.842 31.656C168.412 31.2187 167.164 30.5573 166.098 29.672C165.042 28.7867 164.226 27.6613 163.65 26.296C163.074 24.9307 162.786 23.3147 162.786 21.448C162.786 19.816 163.042 18.4027 163.554 17.208C164.076 16.0027 164.791 14.9893 165.698 14.168C166.604 13.336 167.644 12.6747 168.818 12.184C169.991 11.6827 171.234 11.32 172.546 11.096C173.858 10.872 175.17 10.76 176.482 10.76C177.26 10.76 178.034 10.8347 178.802 10.984C179.58 11.1227 180.29 11.3413 180.93 11.64C181.58 11.928 182.098 12.296 182.482 12.744C182.876 13.192 183.074 13.7147 183.074 14.312C183.074 15.1333 182.807 15.7467 182.274 16.152C181.74 16.5573 181.063 16.76 180.242 16.76C179.804 16.76 179.42 16.7387 179.09 16.696C178.759 16.6533 178.444 16.6 178.146 16.536C177.847 16.4613 177.527 16.4027 177.186 16.36C176.855 16.3067 176.471 16.28 176.034 16.28C175.266 16.28 174.588 16.408 174.002 16.664C173.415 16.92 172.924 17.2827 172.53 17.752C172.146 18.2107 171.852 18.7653 171.65 19.416C171.447 20.056 171.345 20.76 171.345 21.528C171.345 22.5307 171.532 23.3893 171.906 24.104C172.279 24.8187 172.834 25.368 173.57 25.752C174.316 26.1253 175.228 26.312 176.306 26.312C176.583 26.312 176.844 26.296 177.09 26.264C177.346 26.2213 177.57 26.1573 177.762 26.072C177.954 25.9867 178.103 25.8747 178.21 25.736C178.327 25.5973 178.385 25.4213 178.385 25.208C178.385 24.9947 178.311 24.808 178.162 24.648C178.012 24.488 177.778 24.344 177.458 24.216C177.148 24.088 176.743 23.9813 176.242 23.896C175.57 23.7573 175.004 23.4907 174.546 23.096C174.098 22.6907 173.874 22.0613 173.874 21.208C173.874 20.5253 174.108 19.976 174.578 19.56C175.058 19.144 175.687 18.8453 176.466 18.664C177.244 18.472 178.076 18.376 178.962 18.376C180.135 18.376 181.202 18.488 182.162 18.712C183.122 18.936 183.943 19.288 184.626 19.768C185.319 20.248 185.847 20.8667 186.21 21.624C186.583 22.3707 186.77 23.272 186.77 24.328C186.77 25.9493 186.455 27.2827 185.826 28.328C185.207 29.3733 184.343 30.184 183.234 30.76C182.124 31.336 180.828 31.736 179.346 31.96C177.874 32.1947 176.279 32.312 174.562 32.312ZM199.446 32.712C197.91 32.712 196.481 32.504 195.158 32.088C193.846 31.672 192.699 31.064 191.718 30.264C190.737 29.464 189.969 28.4827 189.414 27.32C188.87 26.1573 188.598 24.8293 188.598 23.336C188.598 21.864 188.817 20.5307 189.254 19.336C189.691 18.1307 190.305 17.0693 191.094 16.152C191.894 15.224 192.833 14.4453 193.91 13.816C194.987 13.1867 196.166 12.712 197.446 12.392C198.737 12.072 200.086 11.912 201.494 11.912C203.126 11.912 204.662 12.136 206.102 12.584C207.553 13.0213 208.833 13.6613 209.942 14.504C211.051 15.3467 211.921 16.376 212.55 17.592C213.179 18.7973 213.494 20.168 213.494 21.704C213.494 23.4 213.11 24.9307 212.342 26.296C211.574 27.6507 210.523 28.808 209.19 29.768C207.867 30.7173 206.363 31.4427 204.678 31.944C203.003 32.456 201.259 32.712 199.446 32.712ZM201.03 24.408C201.947 24.408 202.689 24.2533 203.254 23.944C203.819 23.6347 204.225 23.2453 204.47 22.776C204.726 22.296 204.854 21.8053 204.854 21.304C204.854 20.824 204.769 20.3867 204.598 19.992C204.427 19.5867 204.182 19.2347 203.862 18.936C203.542 18.6373 203.174 18.4027 202.758 18.232C202.342 18.0613 201.889 17.976 201.398 17.976C200.95 17.976 200.513 18.0453 200.086 18.184C199.659 18.3227 199.275 18.52 198.934 18.776C198.603 19.032 198.337 19.3467 198.134 19.72C197.942 20.0827 197.846 20.4827 197.846 20.92C197.846 21.3787 197.926 21.816 198.086 22.232C198.246 22.6373 198.465 23.0053 198.742 23.336C199.03 23.6667 199.366 23.928 199.75 24.12C200.145 24.312 200.571 24.408 201.03 24.408Z" fill="#F9F9F9"/>
</svg>
